<svg id="RADIO_Image" data-name="RADIO Image" xmlns="http://www.w3.org/2000/svg" viewBox="0 0 1002.56 1000"><defs><style>.cls-1{fill-rule:evenodd;}</style></defs><path class="cls-1" d="M1528.06,1001.42c2.31.42,4.6,1,6.93,1.25,10.24,1.2,20.5,2.29,30.75,3.48a31.07,31.07,0,0,1,14.49,5.46c7.71,5.45,11.32,13.16,11.73,22.35a96.62,96.62,0,0,1-.63,13.91c-1,9.58-2.07,19.16-3.4,28.7a54.11,54.11,0,0,1-2.78,10.49,22.7,22.7,0,0,1-13.58,13.92c-.83.33-1.63.71-2.71,1.19l12.3,76.23-22.4-2.5c-3.89-23.91-7.74-47.59-11.61-71.41l-8.56-.94c-2.6,23.11-5.17,45.94-7.79,69.19l-22.36-2.48c.51-4.89,1-9.48,1.49-14.06q2.22-19.77,4.48-39.54,2.28-20.28,4.56-40.56,2.19-19.61,4.36-39.21,2-17.75,4.05-35.47Zm12.91,80.79c4.86.47,9.35,1.15,13.84,1.25a9.21,9.21,0,0,0,9.4-6.51,39,39,0,0,0,2-7.88q1.49-11,2.55-22a58.7,58.7,0,0,0,.21-10.18c-.41-5.56-3.34-8.71-8.8-9.7-3.45-.62-7-.91-10.46-1.3a16.15,16.15,0,0,0-2.42.12C1545.17,1044.79,1543.09,1063.33,1541,1082.21Z" transform="translate(-1000.85 -1001.42)"/><path class="cls-1" d="M2003.41,1509.46a3,3,0,0,0-.5.85c-2.35,13.66-10.22,21.82-23.82,24.37a71.8,71.8,0,0,1-11.15,1.14c-9.64.25-19.29.29-28.94.39a53.32,53.32,0,0,1-14.5-1.58c-12-3.22-19.76-12.63-20.49-25-.3-5.09-.27-10.21-.41-15.31,0-1.12-.1-2.23-.17-3.68l-69.53,1.12v-22.07c2.52-.69,163.56-3.5,168.93-2.84,0,2.61-.07,5.3,0,8,.13,3.83.37,7.67.56,11.5Zm-78.57-19.21c.3,5.34.34,10.09.89,14.78a8.32,8.32,0,0,0,6.37,7.23,31.15,31.15,0,0,0,8,1.28q12.57.11,25.15-.28a44.38,44.38,0,0,0,9.38-1.33,9,9,0,0,0,7-7.16c1.06-5,.28-10.08.23-15.43Z" transform="translate(-1000.85 -1001.42)"/><path class="cls-1" d="M1290,1247.06c-6.63,7.09-13.14,14-19.89,21.27l-100.59-54.11-.43.53,80.9,75.09-15.41,16.48-123.82-115.79,19.34-20.68L1233,1224.53c.14-.19.27-.38.41-.56L1151,1147.52c5.16-5.51,10.11-10.8,15-16.06C1168.37,1132.69,1286.29,1242.61,1290,1247.06Z" transform="translate(-1000.85 -1001.42)"/><path class="cls-1" d="M1683.47,1100.29l-48.56,98.08-20.18-10.09c25.28-50.58,50.45-101,75.77-151.63l25.33,12.64q-11.58,57.11-23.12,114l.7.24c16.52-33.38,33-66.76,49.77-100.52l20.18,10.09c-25.3,50.62-50.46,101-75.77,151.63l-26.29-13.11c7.53-37,15.43-74,23-111Z" transform="translate(-1000.85 -1001.42)"/><path class="cls-1" d="M1821.09,1773.83c-2.75,1.12-5,2.21-7.35,3a23.82,23.82,0,0,1-18.19-1.52,39.42,39.42,0,0,1-6.36-3.9c-7-5.37-14.11-10.69-20.89-16.37a52,52,0,0,1-9.3-9.85c-7-10.09-7.19-20.69-1.08-31.36a30.93,30.93,0,0,1,2.49-3.65q11.68-15.06,23.42-30.07c.41-.52.88-1,1.51-1.71l133.5,104c-.51.75-.78,1.23-1.12,1.66q-11.17,14.37-22.39,28.72a30.09,30.09,0,0,1-13.12,10,26.49,26.49,0,0,1-20.57-.26,64.65,64.65,0,0,1-11.78-6.69c-6.35-4.56-12.44-9.49-18.56-14.37-5.17-4.12-9.39-9-10.52-15.77a49.34,49.34,0,0,1-.2-8.43A26.5,26.5,0,0,1,1821.09,1773.83Zm-32.88-64.63c-3.41,4.58-6.85,8.78-9.81,13.3a8.85,8.85,0,0,0,.48,10.55,31.85,31.85,0,0,0,5.56,5.92q9.11,7.41,18.51,14.43a26.68,26.68,0,0,0,6.54,3.53,11,11,0,0,0,11.24-1.76c4.24-3.46,7-8.17,10.49-12.46Zm100,77.89-40.07-31.22c-2.95,4-6,7.64-8.5,11.63a8.84,8.84,0,0,0,.57,10.54,36.4,36.4,0,0,0,5.84,6.12c5,4.11,10.11,8,15.29,11.92a34.25,34.25,0,0,0,6.41,3.8c4.8,2.14,8.83,1.32,12.31-2.59C1882.79,1794.17,1885.25,1790.77,1888.17,1787.09Z" transform="translate(-1000.85 -1001.42)"/><path class="cls-1" d="M1086.63,1779.36c-.63-.94-1.17-1.65-1.6-2.41q-8.71-15.21-17.4-30.42a32.49,32.49,0,0,1-4.65-14.78,26.46,26.46,0,0,1,6.9-19.36,50.21,50.21,0,0,1,12.79-10.05q35.28-20.21,70.58-40.38c5.71-3.26,11.41-6.55,17.16-9.74a45.47,45.47,0,0,1,14.28-5.29c10.31-1.82,18.76,1.6,25.65,9.19a33.47,33.47,0,0,1,4.15,5.8c6.09,10.5,12.08,21,18.1,31.59.27.47.48,1,.9,1.85Zm7.22-30.13,110-62.92c-2.54-4.22-4.7-8.33-7.36-12.09a9,9,0,0,0-10.53-3.58,38.43,38.43,0,0,0-7.84,3.17q-41.07,23.36-82,46.92a35,35,0,0,0-6.47,4.91c-3.51,3.31-4.37,7.41-2.23,11.78C1089.31,1741.37,1091.59,1745.15,1093.85,1749.23Z" transform="translate(-1000.85 -1001.42)"/><path class="cls-1" d="M1336.17,1974.27c-8.22-3.53-15.93-6.83-23.62-10.15-4.37-1.89-8.79-3.69-13.07-5.77-8.28-4-14-10.36-16.19-19.46-1.25-5.18-.7-10.37.59-15.49a25.83,25.83,0,0,1,1.18-3.9c5.2-12.08,10.39-24.16,15.7-36.19a39.39,39.39,0,0,1,3.75-6.07,24,24,0,0,1,19.09-10.87c.45,0,.89-.11,1.34-.18a4.62,4.62,0,0,0,.66-.32c3.42-25.11,6.86-50.45,10.37-76.25l20.7,8.9c-3.2,23.8-6.41,47.58-9.65,71.7l7.84,3.44c9.35-21.26,18.29-42.51,27.67-64l20.7,8.91C1380.85,1870.55,1358.59,1922.24,1336.17,1974.27Zm10.25-80.85-9.1-3.94a30,30,0,0,0-2.84-1.14c-5.13-1.65-9-.51-12.29,3.85a32,32,0,0,0-3.61,6.13q-5.25,11.81-10.21,23.71a35.58,35.58,0,0,0-2.1,7.5,9.52,9.52,0,0,0,3.51,9.4c2.08,1.71,11.2,5.7,14.35,6.22Z" transform="translate(-1000.85 -1001.42)"/><path class="cls-1" d="M1089.28,1462.71c17.25.3,34.49.53,51.73,1a62.92,62.92,0,0,1,11.78,1.36c11.21,2.48,18.29,9.68,21.67,20.42a42,42,0,0,1-.29,26.45c-4.41,13.11-13.83,20-27.49,21.33a70.34,70.34,0,0,1-7.82.18q-51.39-.77-102.78-1.61a58.41,58.41,0,0,1-10.45-1.2c-11.65-2.35-19-9.52-22.59-20.72a46.4,46.4,0,0,1-.41-26.82c3.26-11.82,11.88-19,24.75-20.57a85.63,85.63,0,0,1,10.86-.6c17,.21,34,.55,51,.84ZM1084,1510c21.49.34,37.49.66,53.48.78a32.42,32.42,0,0,0,9.35-1.28,11.5,11.5,0,0,0,.45-21.73,28.51,28.51,0,0,0-8.63-1.55q-49.5-1-99-1.73a30.48,30.48,0,0,0-8.39,1.08,11.61,11.61,0,0,0-.45,22.35,32.29,32.29,0,0,0,8.68,1.36C1056.2,1509.65,1072.87,1509.84,1084,1510Z" transform="translate(-1000.85 -1001.42)"/><path class="cls-1" d="M1988.35,1629.61l-7.17,21.16c-1.46-.44-2.74-.77-4-1.2q-60.54-20.5-121.09-41a44.79,44.79,0,0,0-8.54-2.18c-8.36-1.08-14.76,5.06-13.84,13.05a11.06,11.06,0,0,0,5.56,8.53,46.92,46.92,0,0,0,8.62,3.94q54.39,18.54,108.84,36.92l13.51,4.6c.84.29,1.66.65,2.86,1.13l-7.15,21.1c-1.49-.45-2.67-.77-3.82-1.16q-62.16-21-124.29-42.16a66.33,66.33,0,0,1-11.2-4.87c-11.38-6.44-16-16.62-15.11-29.36a43.44,43.44,0,0,1,5.87-18.68c7.78-13.63,20.74-19.28,36.14-15.22,8,2.1,15.76,5,23.59,7.65q53.64,18.12,107.25,36.31C1985.57,1628.55,1986.73,1629,1988.35,1629.61Z" transform="translate(-1000.85 -1001.42)"/><path class="cls-1" d="M1254.56,1722.53l16.84,15-21.69,31.06,18.65,16.62,28.35-25.12,16.84,15-129.8,111.41L1159,1864.42Zm-17.17,63.85-45.9,65.61a5.09,5.09,0,0,0-.44.91c0,.07,0,.2.12.28s.16.1.43.27l60.65-53.82Z" transform="translate(-1000.85 -1001.42)"/><path class="cls-1" d="M1540.28,1887.61l-22.28,2.84c-.51-3.54-1-6.75-1.42-10-.65-4.94-1.51-9.88-1.83-14.85a68.41,68.41,0,0,1,.22-12.88c1.16-9.32,6.37-16.17,14.42-20.71A41.51,41.51,0,0,1,1561,1828c11.31,2.9,18.49,10.36,21.44,21.56a133.21,133.21,0,0,1,2.77,16.07c2,15.28,4,30.59,6,45.89q2.88,22.44,5.73,44.88c.72,5.62,1.52,11.21.82,16.94-1.1,9-5.25,16.18-12.85,21a42.74,42.74,0,0,1-35.89,5.27c-9-2.52-15.3-8.45-18.07-17.44a104.61,104.61,0,0,1-3-15c-1.16-7.6-2-15.25-3.08-23.35l22.29-2.91c.49,3.52,1,6.73,1.38,10,.7,5.17,1.22,10.37,2.13,15.5a23.61,23.61,0,0,0,2.55,7.32c2.53,4.49,6.6,6.37,11.76,5.71a10.92,10.92,0,0,0,9.43-8.61,28.42,28.42,0,0,0,.48-9.1c-3.18-25.43-6.54-50.84-9.83-76.26-1-7.54-1.8-15.09-2.94-22.6a29.9,29.9,0,0,0-2.4-8.1,11.21,11.21,0,0,0-12-6.46c-5.37.85-9.39,4.64-9.93,10.13a55.39,55.39,0,0,0,.28,10.84C1538.57,1875.25,1539.45,1881.18,1540.28,1887.61Z" transform="translate(-1000.85 -1001.42)"/><path class="cls-1" d="M1427.3,1158.62l37.29-7.51c1.45,7.09,2.82,13.83,4.28,21l-59.42,12.06L1375.77,1018l59.4-12c1.45,7.1,2.82,13.84,4.28,21l-37.28,7.63c3.44,17,6.83,33.71,10.28,50.69l35.77-7.17,4.26,21-35.75,7.32C1420.26,1123.87,1423.74,1141,1427.3,1158.62Z" transform="translate(-1000.85 -1001.42)"/><path class="cls-1" d="M1842.37,1133.39l42.22,43.52-15.4,14.94-26.51-27.31-37.16,36,25.4,26.22-15.33,14.91c-8.56-8.57-16.77-17.27-25.5-26.15-12.76,12.38-25.4,24.64-38.26,37.1l26.48,27.36L1762.92,1295l-42.23-43.52Z" transform="translate(-1000.85 -1001.42)"/><path class="cls-1" d="M1791.68,1339.86,1923,1271.51c-3.23-6.25-6.36-12.33-9.63-18.67l19-9.89,29.84,57.31-19,9.88-9.77-18.59-131.29,68.31Z" transform="translate(-1000.85 -1001.42)"/><path class="cls-1" d="M1267.61,1085.9l-18.53,9.91c-3.4-6.33-6.66-12.4-10.15-18.88l56.91-30.59c3.4,6.31,6.66,12.38,10.15,18.87l-18.47,10,70,130.4-19.88,10.68Z" transform="translate(-1000.85 -1001.42)"/><path class="cls-1" d="M1705.75,1790.16l-22,15.55-12.43-17.47,40.44-28.67,98,138.31-18.41,13C1762.81,1870.64,1734.42,1830.59,1705.75,1790.16Z" transform="translate(-1000.85 -1001.42)"/><path class="cls-1" d="M1052.31,1287.06c3.49-6.92,6.75-13.37,10.18-20.15l151.31,76.43-10.18,20.15Z" transform="translate(-1000.85 -1001.42)"/><path class="cls-1" d="M1022.77,1638.88l-5.71-21.83,164.07-42.6c1.91,7.35,3.76,14.41,5.7,21.84Z" transform="translate(-1000.85 -1001.42)"/><path class="cls-1" d="M1619.18,1811.91l20.14-8.32c1.8,2.28,61.25,145.67,64.93,156.58l-20.14,8.33C1682.29,1966.21,1622.61,1822.24,1619.18,1811.91Z" transform="translate(-1000.85 -1001.42)"/></svg>